<?xml version="1.0" standalone="no"?>
<!DOCTYPE svg PUBLIC "-//W3C//DTD SVG 20010904//EN"
 "http://www.w3.org/TR/2001/REC-SVG-20010904/DTD/svg10.dtd">
<svg version="1.0" xmlns="http://www.w3.org/2000/svg"
 width="1000.000000pt" height="500.000000pt" viewBox="0 0 1000.000000 500.000000"
 preserveAspectRatio="xMidYMid meet">
<metadata>
Created by potrace 1.16, written by Peter Selinger 2001-2019
</metadata>
<g transform="translate(0.000000,500.000000) scale(0.100000,-0.100000)"
fill="#c2c2c2" stroke="none">
<path d="M3733 4643 l-113 -66 0 -137 0 -137 115 -67 c63 -36 119 -66 125 -66
6 0 62 30 125 66 l115 66 0 138 0 138 -115 66 c-63 36 -120 66 -127 66 -7 -1
-64 -31 -125 -67z"/>
<path d="M513 4517 l-193 -111 0 -236 0 -236 194 -112 c107 -62 199 -112 205
-112 6 0 99 51 206 112 l195 113 0 235 0 235 -195 113 c-107 61 -200 112 -207
112 -7 -1 -100 -51 -205 -113z"/>
<path d="M5523 4534 l-113 -66 0 -138 0 -138 115 -66 c63 -36 119 -66 125 -66
6 0 62 30 125 66 l115 67 0 137 0 137 -115 67 c-63 36 -120 66 -127 65 -7 0
-64 -29 -125 -65z"/>
<path d="M8725 4426 l-250 -144 0 -297 0 -297 250 -144 c146 -85 257 -143 267
-140 10 2 126 66 258 143 l240 138 0 300 0 300 -240 138 c-132 77 -248 141
-258 143 -10 3 -121 -55 -267 -140z"/>
<path d="M1333 4394 l-133 -75 0 -164 0 -164 133 -75 c73 -42 137 -76 142 -76
5 0 69 34 142 76 l133 76 0 163 0 163 -133 76 c-73 42 -137 76 -142 76 -6 0
-70 -34 -142 -76z"/>
<path d="M3438 4409 c-37 -19 -38 -21 -38 -74 l0 -55 45 -22 45 -22 37 21 c36
21 38 25 41 76 3 53 2 55 -33 76 -44 25 -50 25 -97 0z"/>
<path d="M7518 4348 l-88 -50 0 -108 0 -108 90 -51 c49 -28 94 -51 100 -51 6
0 51 23 100 51 l90 51 0 108 0 108 -90 51 c-49 28 -96 51 -102 50 -7 0 -52
-23 -100 -51z"/>
<path d="M3453 4194 l-133 -76 0 -163 0 -163 133 -76 c73 -42 137 -76 142 -76
5 0 69 34 142 76 l133 75 0 164 0 164 -133 75 c-73 42 -137 76 -142 76 -6 0
-70 -34 -142 -76z"/>
<path d="M3028 4104 l-78 -46 0 -98 0 -98 80 -46 c43 -25 84 -46 90 -46 6 0
47 21 90 46 l80 46 0 98 0 98 -80 46 c-43 25 -85 46 -92 46 -7 -1 -48 -21 -90
-46z"/>
<path d="M1992 4118 c-31 -19 -33 -23 -30 -75 3 -51 5 -55 41 -76 l37 -21 45
22 45 22 0 55 c0 54 -1 55 -40 75 -47 24 -56 24 -98 -2z"/>
<path d="M1778 3948 l-88 -50 0 -108 0 -108 90 -51 c49 -28 94 -51 100 -51 6
0 51 23 100 51 l90 51 0 108 0 108 -90 51 c-49 28 -96 51 -102 50 -7 0 -52
-23 -100 -51z"/>
<path d="M945 3776 l-250 -144 0 -297 0 -297 250 -144 c146 -85 257 -143 267
-140 10 2 126 66 258 143 l240 138 0 300 0 300 -240 138 c-132 77 -248 141
-258 143 -10 3 -121 -55 -267 -140z"/>
<path d="M3748 3688 l-88 -50 0 -108 0 -108 90 -51 c49 -28 94 -51 100 -51 6
0 51 23 100 51 l90 51 0 108 0 108 -90 51 c-49 28 -96 51 -102 50 -7 0 -52
-23 -100 -51z"/>
<path d="M3508 3599 c-37 -19 -38 -21 -38 -74 l0 -55 45 -22 45 -22 37 21 c36
21 38 25 41 76 3 53 2 55 -33 76 -44 25 -50 25 -97 0z"/>
<path d="M6143 3524 l-133 -76 0 -163 0 -163 133 -76 c73 -42 137 -76 142 -76
5 0 69 34 142 76 l133 75 0 164 0 164 -133 75 c-73 42 -137 76 -142 76 -6 0
-70 -34 -142 -76z"/>
<path d="M1853 3514 l-113 -66 0 -138 0 -138 115 -66 c63 -36 119 -66 125 -66
6 0 62 30 125 66 l115 67 0 137 0 137 -115 67 c-63 36 -120 66 -127 65 -7 0
-64 -29 -125 -65z"/>
<path d="M7168 3468 l-88 -50 0 -108 0 -108 90 -51 c49 -28 94 -51 100 -51 6
0 51 23 100 51 l90 51 0 108 0 108 -90 51 c-49 28 -96 51 -102 50 -7 0 -52
-23 -100 -51z"/>
<path d="M6928 3389 c-37 -19 -38 -21 -38 -74 l0 -55 45 -22 45 -22 37 21 c36
21 38 25 41 76 3 53 2 55 -33 76 -44 25 -50 25 -97 0z"/>
<path d="M5668 3249 c-37 -19 -38 -21 -38 -74 l0 -55 45 -22 45 -22 37 21 c36
21 38 25 41 76 3 53 2 55 -33 76 -44 25 -50 25 -97 0z"/>
<path d="M6873 3124 l-133 -76 0 -163 0 -163 133 -76 c73 -42 137 -76 142 -76
5 0 69 34 142 76 l133 75 0 164 0 164 -133 75 c-73 42 -137 76 -142 76 -6 0
-70 -34 -142 -76z"/>
<path d="M5778 3078 l-88 -50 0 -108 0 -108 90 -51 c49 -28 94 -51 100 -51 6
0 51 23 100 51 l90 51 0 108 0 108 -90 51 c-49 28 -96 51 -102 50 -7 0 -52
-23 -100 -51z"/>
<path d="M2128 3074 l-78 -46 0 -98 0 -98 80 -46 c43 -25 84 -46 90 -46 6 0
47 21 90 46 l80 46 0 98 0 98 -80 46 c-43 25 -85 46 -92 46 -7 -1 -48 -21 -90
-46z"/>
<path d="M3103 2967 l-193 -111 0 -236 0 -236 194 -112 c107 -62 199 -112 205
-112 6 0 99 51 206 112 l195 113 0 235 0 235 -195 113 c-107 61 -200 112 -207
112 -7 -1 -100 -51 -205 -113z"/>
<path d="M6448 3024 l-78 -46 0 -98 0 -98 80 -46 c43 -25 84 -46 90 -46 6 0
47 21 90 46 l80 46 0 98 0 98 -80 46 c-43 25 -85 46 -92 46 -7 -1 -48 -21 -90
-46z"/>
<path d="M3923 2844 l-133 -75 0 -164 0 -164 133 -75 c73 -42 137 -76 142 -76
5 0 69 34 142 76 l133 76 0 163 0 163 -133 76 c-73 42 -137 76 -142 76 -6 0
-70 -34 -142 -76z"/>
<path d="M8522 2878 c-31 -19 -33 -23 -30 -75 3 -51 5 -55 41 -76 l37 -21 45
22 45 22 0 55 c0 54 -1 55 -40 75 -47 24 -56 24 -98 -2z"/>
<path d="M5653 2643 l-113 -66 0 -137 0 -137 115 -67 c63 -36 119 -66 125 -66
6 0 62 30 125 66 l115 66 0 138 0 138 -115 66 c-63 36 -120 66 -127 66 -7 -1
-64 -31 -125 -67z"/>
<path d="M6858 2579 c-37 -19 -38 -21 -38 -74 l0 -55 45 -22 45 -22 37 21 c36
21 38 25 41 76 3 53 2 55 -33 76 -44 25 -50 25 -97 0z"/>
<path d="M4582 2568 c-31 -19 -33 -23 -30 -75 3 -51 5 -55 41 -76 l37 -21 45
22 45 22 0 55 c0 54 -1 55 -40 75 -47 24 -56 24 -98 -2z"/>
<path d="M9263 2494 l-133 -75 0 -164 0 -164 133 -75 c73 -42 137 -76 142 -76
5 0 69 34 142 76 l133 76 0 163 0 163 -133 76 c-73 42 -137 76 -142 76 -6 0
-70 -34 -142 -76z"/>
<path d="M4368 2398 l-88 -50 0 -108 0 -108 90 -51 c49 -28 94 -51 100 -51 6
0 51 23 100 51 l90 51 0 108 0 108 -90 51 c-49 28 -96 51 -102 50 -7 0 -52
-23 -100 -51z"/>
<path d="M3535 2226 l-250 -144 0 -297 0 -297 250 -144 c146 -85 257 -143 267
-140 10 2 126 66 258 143 l240 138 0 300 0 300 -240 138 c-132 77 -248 141
-258 143 -10 3 -121 -55 -267 -140z"/>
<path d="M5448 2204 l-78 -46 0 -98 0 -98 80 -46 c43 -25 84 -46 90 -46 6 0
47 21 90 46 l80 46 0 98 0 98 -80 46 c-43 25 -85 46 -92 46 -7 -1 -48 -21 -90
-46z"/>
<path d="M2988 2184 l-78 -46 0 -98 0 -98 80 -46 c43 -25 84 -46 90 -46 6 0
47 21 90 46 l80 46 0 98 0 98 -80 46 c-43 25 -85 46 -92 46 -7 -1 -48 -21 -90
-46z"/>
<path d="M1805 2076 l-250 -144 0 -297 0 -297 250 -144 c146 -85 257 -143 267
-140 10 2 126 66 258 143 l240 138 0 300 0 300 -240 138 c-132 77 -248 141
-258 143 -10 3 -121 -55 -267 -140z"/>
<path d="M7738 2054 l-78 -46 0 -98 0 -98 80 -46 c43 -25 84 -46 90 -46 6 0
47 21 90 46 l80 46 0 98 0 98 -80 46 c-43 25 -85 46 -92 46 -7 -1 -48 -21 -90
-46z"/>
<path d="M4443 1964 l-113 -66 0 -138 0 -138 115 -66 c63 -36 119 -66 125 -66
6 0 62 30 125 66 l115 67 0 137 0 137 -115 67 c-63 36 -120 66 -127 65 -7 0
-64 -29 -125 -65z"/>
<path d="M2713 1864 l-113 -66 0 -138 0 -138 115 -66 c63 -36 119 -66 125 -66
6 0 62 30 125 66 l115 67 0 137 0 137 -115 67 c-63 36 -120 66 -127 65 -7 0
-64 -29 -125 -65z"/>
<path d="M6343 1624 l-113 -66 0 -138 0 -138 115 -66 c63 -36 119 -66 125 -66
6 0 62 30 125 66 l115 67 0 137 0 137 -115 67 c-63 36 -120 66 -127 65 -7 0
-64 -29 -125 -65z"/>
<path d="M4718 1524 l-78 -46 0 -98 0 -98 80 -46 c43 -25 84 -46 90 -46 6 0
47 21 90 46 l80 46 0 98 0 98 -80 46 c-43 25 -85 46 -92 46 -7 -1 -48 -21 -90
-46z"/>
<path d="M6792 1388 c-31 -19 -33 -23 -30 -75 3 -51 5 -55 41 -76 l37 -21 45
22 45 22 0 55 c0 54 -1 55 -40 75 -47 24 -56 24 -98 -2z"/>
<path d="M5753 1287 l-193 -111 0 -236 0 -236 194 -112 c107 -62 199 -112 205
-112 6 0 99 51 206 112 l195 113 0 235 0 235 -195 113 c-107 61 -200 112 -207
112 -7 -1 -100 -51 -205 -113z"/>
<path d="M2638 1338 l-88 -50 0 -108 0 -108 90 -51 c49 -28 94 -51 100 -51 6
0 51 23 100 51 l90 51 0 108 0 108 -90 51 c-49 28 -96 51 -102 50 -7 0 -52
-23 -100 -51z"/>
<path d="M8753 1257 l-193 -111 0 -236 0 -236 194 -112 c107 -62 199 -112 205
-112 6 0 99 51 206 112 l195 113 0 235 0 235 -195 113 c-107 61 -200 112 -207
112 -7 -1 -100 -51 -205 -113z"/>
<path d="M1373 1148 l-193 -112 0 -236 0 -236 194 -112 c107 -62 200 -112 206
-112 6 0 98 51 205 112 l195 113 0 235 0 235 -195 113 c-107 61 -200 112 -207
112 -7 0 -100 -51 -205 -112z"/>
<path d="M6593 1174 l-133 -75 0 -164 0 -164 133 -75 c73 -42 137 -76 142 -76
5 0 69 34 142 76 l133 76 0 163 0 163 -133 76 c-73 42 -137 76 -142 76 -6 0
-70 -34 -142 -76z"/>
<path d="M2193 1054 l-133 -75 0 -164 0 -164 133 -75 c73 -42 137 -76 142 -76
5 0 69 34 142 76 l133 76 0 163 0 163 -133 76 c-73 42 -137 76 -142 76 -6 0
-70 -34 -142 -76z"/>
<path d="M7118 1084 l-78 -46 0 -98 0 -98 80 -46 c43 -25 84 -46 90 -46 6 0
47 21 90 46 l80 46 0 98 0 98 -80 46 c-43 25 -85 46 -92 46 -7 -1 -48 -21 -90
-46z"/>
<path d="M2852 998 c-31 -19 -33 -23 -30 -75 3 -51 5 -55 41 -76 l37 -21 45
22 45 22 0 55 c0 54 -1 55 -40 75 -47 24 -56 24 -98 -2z"/>
<path d="M6378 668 l-88 -50 0 -108 0 -108 90 -51 c49 -28 94 -51 100 -51 6 0
51 23 100 51 l90 51 0 108 0 108 -90 51 c-49 28 -96 51 -102 50 -7 0 -52 -23
-100 -51z"/>
<path d="M6722 578 c-31 -19 -33 -23 -30 -75 3 -51 5 -55 41 -76 l37 -21 45
22 45 22 0 55 c0 54 -1 55 -40 75 -47 24 -56 24 -98 -2z"/>
</g>
</svg>
